# xmcd
#
# Track frame offsets: 
#        150
#        22668
#        35712
#        58924
#        84219
#        133188
#        158562
#        177960
#        190485
#        201780
#        225276
#        255800
#        265410
#        281235
#        310325
#
# Disc length: 4414 seconds
#
# Revision: 0
# Processed by: cddbd v1.5.1PL0 Copyright (c) Steve Scherf et al.
# Submitted via: ExactAudioCopy v0.95a3
#
DISCID=c7113c0f
DTITLE=Rollins Band - Turned On
DYEAR=1900
DGENRE=
TTITLE0=Lonely
TTITLE1=Do It
TTITLE2=What Have I Got
TTITLE3=Taring
TTITLE4=Out There
TTITLE5=You Didn't Need
TTITLE6=Hard
TTITLE7=Followed Around
TTITLE8=Mask
TTITLE9=Down and Away
TTITLE10=Turned Inside Out
TTITLE11=The Dietmar Song
TTITLE12=Black and White
TTITLE13=What Do You Do
TTITLE14=Crazy Lover
EXTD=
EXTT0=
EXTT1=
EXTT2=
EXTT3=
EXTT4=
EXTT5=
EXTT6=
EXTT7=
EXTT8=
EXTT9=
EXTT10=
EXTT11=
EXTT12=
EXTT13=
EXTT14=
PLAYORDER=
